<?xml version="1.0" encoding="utf-8"?>
<!-- Generator: Adobe Illustrator 23.0.5, SVG Export Plug-In . SVG Version: 6.00 Build 0)  -->
<svg version="1.1" id="Layer_1" xmlns="http://www.w3.org/2000/svg" xmlns:xlink="http://www.w3.org/1999/xlink" x="0px" y="0px"
	 viewBox="0 0 123.5 145.9" style="enable-background:new 0 0 123.5 145.9;" xml:space="preserve">
<style type="text/css">
	.st0{fill:none;stroke:#231F20;stroke-width:5;stroke-linejoin:round;stroke-miterlimit:10;}
	.st1{fill:none;stroke:#231F20;stroke-width:5;stroke-linecap:round;stroke-linejoin:round;stroke-miterlimit:10;}
</style>
<path class="st0" d="M114.9,16.2v113.6c0,5.1-4.1,9.2-9.2,9.2H14.3c-5.1,0-9.2-4.1-9.2-9.2V26.1L23.9,7h81.8
	C110.7,7,114.9,11.1,114.9,16.2z"/>
<line class="st1" x1="20.2" y1="106.1" x2="99.8" y2="106.1"/>
<line class="st1" x1="20.2" y1="115.9" x2="99.8" y2="115.9"/>
<line class="st1" x1="20.2" y1="125.7" x2="99.8" y2="125.7"/>
<g>
	<path class="st1" d="M83.6,46.9c0,8.9-4.9,16.6-12.2,20.7c0,3.2-0.4,6.3-1.1,9H49.9c-0.1,0-0.1,0-0.2,0c-0.7-2.7-1.1-5.8-1.1-9
		c-7.3-4-12.2-11.8-12.2-20.7c0-13,10.5-23.6,23.6-23.6S83.6,33.9,83.6,46.9z"/>
	<path class="st1" d="M68.3,84.9v2.8c0,4.5-3.7,8.3-8.2,8.3s-8.3-3.7-8.3-8.3v-2.8H68.3z"/>
	<path class="st1" d="M74.8,80.3v0.7c0,2.1-1.7,3.8-3.8,3.8H49.9c-2.1,0-3.8-1.7-3.8-3.8v-0.7c0-2,1.6-3.7,3.6-3.8
		c0.1,0,0.1,0,0.2,0H71C73.1,76.5,74.8,78.2,74.8,80.3z"/>
	<line class="st1" x1="60" y1="47.4" x2="60" y2="76.5"/>
	<line class="st1" x1="53" y1="47.4" x2="67" y2="47.4"/>
</g>
<path class="st1" d="M23.9,7v15.1c0,2.2-1.8,4-4,4H5.1L23.9,7z"/>
</svg>
